<?xml version="1.0" standalone="no"?>
<!DOCTYPE svg PUBLIC "-//W3C//DTD SVG 20010904//EN"
 "http://www.w3.org/TR/2001/REC-SVG-20010904/DTD/svg10.dtd">
<svg version="1.0" xmlns="http://www.w3.org/2000/svg"
 width="500.000000pt" height="500.000000pt" viewBox="0 0 500.000000 500.000000"
 preserveAspectRatio="xMidYMid meet">
<metadata>
Created by potrace 1.14, written by Peter Selinger 2001-2017
</metadata>
<g transform="translate(0.000000,500.000000) scale(0.100000,-0.100000)"
fill="#000000" stroke="none">
<path d="M2349 4706 c-2 -2 -29 -7 -59 -11 -89 -10 -272 -62 -369 -104 -463
-201 -790 -634 -858 -1136 -9 -70 -9 -1378 0 -1415 18 -71 83 -115 158 -108
61 6 93 28 119 79 17 33 21 59 21 152 1 130 13 166 52 146 12 -7 38 -28 58
-48 19 -20 57 -56 83 -79 87 -81 81 -43 82 -517 1 -450 1 -452 52 -498 27 -24
90 -46 119 -41 55 10 87 32 118 79 18 28 20 50 20 345 1 173 5 325 9 337 10
30 36 36 87 19 24 -8 82 -24 129 -36 117 -29 155 -57 167 -120 1 -8 3 -311 3
-673 1 -737 -3 -701 74 -751 75 -49 177 -21 216 59 19 40 20 62 20 712 0 441
4 680 10 700 12 32 37 50 85 58 17 3 64 13 106 23 84 20 113 16 125 -20 4 -13
8 -91 9 -175 2 -143 3 -155 26 -188 67 -98 211 -88 266 18 11 22 15 81 17 270
2 282 4 289 94 360 31 25 81 69 111 96 54 51 62 55 91 51 39 -4 40 -19 40
-486 0 -335 3 -460 12 -481 28 -63 103 -102 173 -89 55 11 106 62 114 117 8
58 6 2052 -3 2104 -20 124 -31 168 -61 259 -54 166 -111 277 -213 415 -222
302 -545 496 -942 566 -40 8 -355 17 -361 11z m253 -310 c115 -10 270 -50 338
-86 41 -22 111 -93 132 -135 20 -38 21 -57 23 -465 1 -277 5 -434 12 -450 35
-81 138 -113 217 -67 72 41 78 64 80 334 2 255 7 283 50 283 30 0 49 -22 81
-93 110 -241 121 -561 28 -821 -42 -118 -110 -240 -187 -335 -39 -49 -155
-160 -209 -199 -134 -100 -330 -181 -495 -206 -81 -12 -310 -14 -357 -2 -11 2
-51 12 -88 21 -316 74 -598 298 -745 590 -39 78 -87 217 -97 280 -5 28 -10 57
-12 65 -8 31 -10 261 -3 302 5 24 11 59 14 78 23 145 102 319 208 462 100 136
146 132 156 -12 2 -36 11 -78 20 -94 59 -103 201 -104 268 -2 16 25 19 52 21
205 3 202 12 242 67 279 48 33 163 61 281 68 55 4 102 8 103 10 2 1 9 1 15 -1
7 -2 42 -6 79 -9z"/>
</g>
</svg>
